<svg xmlns="http://www.w3.org/2000/svg" viewBox="0 0 64 64" aria-hidden="true">
  <defs>
    <linearGradient id="g" x1="0%" y1="0%" x2="100%" y2="100%">
      <stop offset="0%" stop-color="#ffd166"/>
      <stop offset="100%" stop-color="#e07a5f"/>
    </linearGradient>
  </defs>
  <rect width="64" height="64" rx="12" fill="#1b4332"/>
  <circle cx="32" cy="32" r="22" fill="url(#g)" opacity="0.9"/>
  <path d="M32 16c-1.2 3.7-2.6 6.4-6.3 9.8-2.4 2-5.4 3.5-8.1 4 2.7 0.4 5.6 2 8 4 3.7 3.5 5.1 6.1 6.4 9.8 1.3-3.7 2.8-6.3 6.4-9.8 2.4-2.1 5.3-3.6 8-4-2.7-0.5-5.7-2-8.1-4-3.7-3.4-5.1-6.1-6.3-9.8z" fill="#1b4332"/>
  <path d="M32 18v28" stroke="#3a4f53" stroke-width="3" stroke-linecap="round"/>
</svg>
